<svg xmlns="http://www.w3.org/2000/svg" class="cbx-arch" viewBox="0 0 1480 660" preserveAspectRatio="xMidYMin meet" font-family="'JetBrains Mono', ui-monospace, SFMono-Regular, Menlo, monospace" role="img" aria-label="CloudBooster AWS architecture diagram"><style>
.cbx-arch [fill="#FAF7F0"]{fill:var(--bp-paper,#FAF7F0)}
.cbx-arch [fill="#1C1917"]{fill:var(--bp-ink,#1C1917)}
.cbx-arch [fill="#57534E"]{fill:var(--bp-subtle,#57534E)}
.cbx-arch [fill="#78716C"]:not(.bp-chip){fill:var(--bp-muted,#78716C)}
.cbx-arch [fill="#A8A29E"]{fill:var(--bp-faint,#A8A29E)}
.cbx-arch [fill="#B91C1C"]:not(.bp-chip){fill:var(--bp-red,#B91C1C)}
.cbx-arch [fill="#C2410C"]:not(.bp-chip){fill:var(--bp-accent,#C2410C)}
.cbx-arch [fill="#0D9488"]{fill:var(--bp-teal,#0D9488)}
.cbx-arch [fill="#65A30D"]{fill:var(--bp-lime,#65A30D)}
.cbx-arch [fill="#64748B"]:not(.bp-tile){fill:var(--bp-slate,#64748B)}
.cbx-arch [fill="#475569"]{fill:var(--bp-slate-strong,#475569)}
.cbx-arch [stroke="#1C1917"]{stroke:var(--bp-ink,#1C1917)}
.cbx-arch [stroke="#78716C"]{stroke:var(--bp-muted,#78716C)}
.cbx-arch [stroke="#A8A29E"]{stroke:var(--bp-faint,#A8A29E)}
.cbx-arch [stroke="#B91C1C"]{stroke:var(--bp-red,#B91C1C)}
.cbx-arch [stroke="#C2410C"]{stroke:var(--bp-accent,#C2410C)}
.cbx-arch [stroke="#0D9488"]{stroke:var(--bp-teal,#0D9488)}
.cbx-arch [stroke="#65A30D"]{stroke:var(--bp-lime,#65A30D)}
.cbx-arch .bp-node{fill:var(--bp-node,#FFFFFF)}
@media (prefers-color-scheme:dark){.cbx-arch{--bp-paper:#141210;--bp-node:#1C1917;--bp-ink:#E7E5E4;--bp-subtle:#D6D3D1;--bp-muted:#A8A29E;--bp-faint:#57534E;--bp-accent:#FB923C;--bp-red:#F87171;--bp-slate:#94A3B8;--bp-slate-strong:#CBD5E1;--bp-teal:#2DD4BF;--bp-lime:#A3E635}}
</style><defs>
		<pattern id="bp-grid" x="0" y="0" width="24" height="24" patternUnits="userSpaceOnUse">
			<path d="M 0 23.5 L 24 23.5" stroke="#1C1917" stroke-opacity="0.04" stroke-width="1"/>
		</pattern>
		<marker id="bp-arrow" viewBox="0 0 10 10" refX="9" refY="5" markerWidth="7" markerHeight="7" orient="auto-start-reverse">
			<path d="M 0 0 L 10 5 L 0 10 z" fill="#1C1917"/>
		</marker>
		<marker id="bp-arrow-gray" viewBox="0 0 10 10" refX="9" refY="5" markerWidth="6" markerHeight="6" orient="auto-start-reverse">
			<path d="M 0 0 L 10 5 L 0 10 z" fill="#78716C"/>
		</marker>
		<marker id="bp-arrow-red" viewBox="0 0 10 10" refX="9" refY="5" markerWidth="7" markerHeight="7" orient="auto-start-reverse">
			<path d="M 0 0 L 10 5 L 0 10 z" fill="#B91C1C"/>
		</marker>
	</defs><rect x="0" y="0" width="1480" height="660" fill="#FAF7F0"/><rect x="0" y="0" width="1480" height="660" fill="url(#bp-grid)"/><text x="28" y="22" font-size="10" font-weight="700" fill="#78716C" letter-spacing="0.18em" font-family="'JetBrains Mono', ui-monospace, monospace">SHEET A1 · INFRASTRUCTURE TOPOLOGY</text><text x="1452" y="24" text-anchor="end" font-size="14" font-weight="700" fill="#1C1917" letter-spacing="-0.02em">CBX AUDIT · 123456789012 / eu-central-1</text><line x1="28" y1="44" x2="1452" y2="44" stroke="#C2410C" stroke-width="1.5"/><rect x="270" y="84" width="896" height="360" fill="none" stroke="#1C1917" stroke-width="1.5"/><g transform="translate(280,90) scale(0.5000)"><title>Icon-Architecture-Group/32/AWS-Cloud_32</title>
    <g id="Icon-Architecture-Group/32/AWS-Cloud_32" stroke="none" stroke-width="1" fill="none" fill-rule="evenodd">
        <rect id="Rectangle" fill="#242F3E" x="0" y="0" width="40" height="40"></rect>
        <path d="M28.993,27.9952689 L11.487,27.9762689 C9.121,27.9742689 7.154,26.1292689 7.012,23.7752689 C7.004,23.6522689 7,23.5262689 7,23.3972689 C7,20.2992689 9.091,19.2872689 10.337,18.9592689 C10.577,18.8962689 10.735,18.6662689 10.707,18.4192689 C10.676,18.1492689 10.659,17.8752689 10.659,17.5962689 C10.659,15.1322689 12.308,12.4822689 14.415,11.5632689 C15.359,11.1502689 16.232,10.9862689 17.023,10.9862689 C19.276,10.9862689 20.867,12.3152689 21.561,13.0332689 C22.329,13.8262689 22.927,14.8382689 23.34,16.0422689 C23.4,16.2192689 23.555,16.3472689 23.74,16.3742689 C23.918,16.4012689 24.109,16.3232689 24.219,16.1712689 C24.807,15.3502689 25.766,14.9822689 26.659,15.2392689 C27.782,15.5602689 28.516,16.7272689 28.62,18.3072689 C28.578,18.5762689 28.759,18.8292689 29.027,18.8772689 C30.222,19.0892689 33,19.9572689 33,23.4402689 C33,27.5892689 29.114,27.9822689 28.993,27.9952689 M29.594,17.9742689 C29.379,16.0672689 28.4,14.6962689 26.934,14.2782689 C25.899,13.9822689 24.811,14.2452689 23.989,14.9502689 C23.553,13.9362689 22.979,13.0602689 22.28,12.3382689 C20.023,10.0052689 16.933,9.37226889 14.014,10.6462689 C11.531,11.7302689 9.659,14.7182689 9.659,17.5962689 C9.659,17.7702689 9.665,17.9432689 9.676,18.1142689 C8.319,18.5732689 6,19.8752689 6,23.3972689 C6,23.5492689 6.004,23.6962689 6.014,23.8382689 C6.188,26.7162689 8.593,28.9732689 11.486,28.9762689 L29.034,28.9932689 C29.084,28.9892689 34,28.5192689 34,23.4402689 C34,19.5022689 31.003,18.3142689 29.594,17.9742689" id="Fill-1" fill="#FFFFFF"></path>
    </g></g><text x="306" y="104" font-size="10" font-weight="700" fill="#1C1917" letter-spacing="0.15em">REGION · eu-central-1</text><text x="530" y="104" font-size="10" fill="#78716C">(AWS account · 123456789012)</text><rect x="288" y="116" width="860" height="186" fill="none" stroke="#C2410C" stroke-width="1.3" stroke-dasharray="5 3"/><rect x="296" y="107" width="324" height="16" fill="#FAF7F0"/><g transform="translate(300,107) scale(0.3500)"><title>Icon-Architecture-Group/32/Virtual-private-cloud-VPC_32</title>
    <g id="Icon-Architecture-Group/32/Virtual-private-cloud-VPC_32" stroke="none" stroke-width="1" fill="none" fill-rule="evenodd">
        <rect id="Rectangle" fill="#8C4FFF" x="0" y="0" width="40" height="40"></rect>
        <path d="M30.9707,21.0293596 L28.0267,19.7663596 L28.0267,30.2553596 C30.5717,29.9033596 30.9587,27.2873596 30.9747,27.1683596 L30.9707,21.0293596 Z M27.0267,30.2693596 L27.0267,19.7593596 L23.9917,21.0323596 L23.9917,27.2333596 C24.0047,27.2873596 24.4367,30.0003596 27.0267,30.2693596 L27.0267,30.2693596 Z M27.3327,18.5473596 C27.4567,18.4943596 27.5987,18.4953596 27.7237,18.5483596 L31.6677,20.2403596 C31.8517,20.3193596 31.9707,20.4993596 31.9707,20.6993596 L31.9707,27.2333596 C31.7877,28.6803596 30.6137,31.2963596 27.4437,31.2963596 C24.3687,31.2963596 23.1897,28.6843596 22.9957,27.3023596 L22.9917,20.6993596 C22.9917,20.4983596 23.1127,20.3163596 23.2977,20.2383596 L27.3327,18.5473596 Z M32.9827022,19.1843596 L27.5217,16.7783596 L21.9917,19.1053596 L21.9917,26.2333596 C21.9907,26.2753596 21.9377,29.1013596 23.6487,30.8563596 C24.5657,31.7973596 25.8427,32.2753596 27.4437,32.2753596 C29.0457,32.2753596 30.3307,31.7963596 31.2627,30.8533596 C32.9977,29.0953596 32.9827022,26.2683596 32.9827022,26.2403596 L32.9827022,19.1843596 Z M31.9797,31.5503596 C30.8527,32.6943596 29.3257,33.2753596 27.4437,33.2753596 C25.5597,33.2753596 24.0397,32.6943596 22.9267,31.5483596 C20.9217,29.4853596 20.9877,26.3513596 20.9917,26.2193596 L20.9917,18.7733596 C20.9917,18.5723596 21.1117,18.3903596 21.2967,18.3123596 L27.3317,15.7723596 C27.4587,15.7203596 27.6027,15.7193596 27.7277,15.7763596 L33.6837,18.4013596 C33.8657,18.4813596 33.9827,18.6603596 33.9827,18.8583596 L33.9827,26.2333596 C33.9847,26.3583596 34.0097,29.4883596 31.9797,31.5503596 L31.9797,31.5503596 Z M10.9917,24.2363596 L18.9917,24.2363596 L18.9917,25.2363596 L10.9917,25.2363596 C8.1807,25.2363596 6.1807,23.2203596 6.0127,20.2203596 C6.0007,20.1093596 5.9997,19.9753596 5.9997,19.8413596 C5.9997,17.3323596 7.3177,15.6183596 9.8167,14.8623596 C9.7977,14.6353596 9.7847,14.3963596 9.7847,14.2153596 C9.7847,11.2993596 11.3617,8.77035958 13.8017,7.77035958 C17.0997,6.42235958 20.8437,6.87635958 22.9077,8.87435958 C23.6527,9.59835958 24.2317,10.4163596 24.6677,11.3593596 C25.2767,10.9093596 26.0677,10.6983596 27.0167,10.7453596 C28.7967,10.8353596 30.1657,12.4583596 30.4497,14.7523596 C31.9477,14.8763596 32.9347,15.6353596 33.4597,17.0603596 L32.5227,17.4063596 C32.0947,16.2493596 31.3147,15.7333596 29.9917,15.7333596 C29.7267,15.7333596 29.5077,15.5273596 29.4917,15.2633596 C29.3537,12.9253596 28.0857,11.8003596 26.9657,11.7443596 C26.0207,11.6913596 25.3207,11.9633596 24.8867,12.5353596 C24.7757,12.6803596 24.6017,12.7523596 24.4137,12.7283596 C24.2337,12.7003596 24.0817,12.5773596 24.0187,12.4053596 C23.6147,11.3023596 23.0237,10.3823596 22.2117,9.59135958 C20.4237,7.86135958 17.1217,7.49235958 14.1807,8.69635958 C12.1177,9.54135958 10.7847,11.7073596 10.7847,14.2153596 C10.7847,14.4883596 10.8197,14.9113596 10.8507,15.1743596 C10.8807,15.4253596 10.7197,15.6583596 10.4747,15.7183596 C8.1687,16.2903596 6.9997,17.6773596 6.9997,19.8413596 C6.9997,19.9423596 6.9987,20.0423596 7.0087,20.1433596 C7.1497,22.6383596 8.7117,24.2363596 10.9917,24.2363596 L10.9917,24.2363596 Z" id="Fill-1" fill="#FFFFFF"></path>
    </g></g><text x="320" y="117" font-size="10" font-weight="700" fill="#C2410C" letter-spacing="0.1em">VPC · 172.31.0.0/16</text><text x="468" y="117" font-size="9" fill="#78716C">vpc-0abc1234def5678ab</text><rect x="302" y="144" width="269" height="124" fill="none" stroke="#A8A29E" stroke-width="0.8"/><text x="312" y="160" font-size="9.5" font-weight="700" fill="#57534E" letter-spacing="0.08em">AZ · eu-central-1a</text><rect x="310" y="170" width="253" height="82" fill="none" stroke="#65A30D" stroke-width="1"/><rect x="310" y="170" width="253" height="22" fill="#65A30D" fill-opacity="0.07"/><g transform="translate(315,174) scale(0.3500)"><title>Icon-Architecture-Group/32/Public-subnet_32</title>
    <g id="Icon-Architecture-Group/32/Public-subnet_32" stroke="none" stroke-width="1" fill="none" fill-rule="evenodd">
        <rect id="Rectangle" fill="#7AA116" x="0" y="0" width="40" height="40"></rect>
        <path d="M19.536,22.049 C20.642,22.049 21.542,22.948 21.542,24.054 C21.542,25.16 20.642,26.06 19.536,26.06 C18.43,26.06 17.53,25.16 17.53,24.054 C17.53,22.948 18.43,22.049 19.536,22.049 L19.536,22.049 Z M19.012,27.007 L19.012,30.501 L20.012,30.501 L20.012,27.012 C21.442,26.782 22.542,25.549 22.542,24.054 C22.542,22.397 21.193,21.049 19.536,21.049 C17.879,21.049 16.53,22.397 16.53,24.054 C16.53,25.532 17.604,26.757 19.012,27.007 L19.012,27.007 Z M10,33.014 L29.012,33.014 L29.012,18 L10,18 L10,33.014 Z M14.046,12.484 C14.046,9.46 16.506,7 19.529,7 C22.553,7 25.012,9.46 25.012,12.484 L25.012,17 L14.046,17 L14.046,12.484 Z M29.512,17 L26.012,17 L26.012,12.484 C26.012,8.908 23.103,6 19.529,6 C15.954,6 13.046,8.908 13.046,12.484 L13.046,17 L9.5,17 C9.223,17 9,17.224 9,17.5 L9,33.514 C9,33.79 9.223,34.014 9.5,34.014 L29.512,34.014 C29.788,34.014 30.012,33.79 30.012,33.514 L30.012,17.5 C30.012,17.224 29.788,17 29.512,17 L29.512,17 Z" id="Fill-1" fill="#FFFFFF"></path>
    </g></g><text x="334" y="185" font-size="9.5" font-weight="700" fill="#65A30D" letter-spacing="0.06em">PUBLIC · 172.31.16.0/20</text><text x="555" y="185" text-anchor="end" font-size="8.5" fill="#78716C">subnet-02f49feb7a…</text><text x="436" y="215" text-anchor="middle" font-size="12" font-style="italic" fill="#A8A29E">(no managed compute)</text><rect x="583" y="144" width="269" height="124" fill="none" stroke="#A8A29E" stroke-width="0.8"/><text x="593" y="160" font-size="9.5" font-weight="700" fill="#57534E" letter-spacing="0.08em">AZ · eu-central-1b</text><rect x="591" y="170" width="253" height="82" fill="none" stroke="#65A30D" stroke-width="1"/><rect x="591" y="170" width="253" height="22" fill="#65A30D" fill-opacity="0.07"/><g transform="translate(596,174) scale(0.3500)"><title>Icon-Architecture-Group/32/Public-subnet_32</title>
    <g id="Icon-Architecture-Group/32/Public-subnet_32" stroke="none" stroke-width="1" fill="none" fill-rule="evenodd">
        <rect id="Rectangle" fill="#7AA116" x="0" y="0" width="40" height="40"></rect>
        <path d="M19.536,22.049 C20.642,22.049 21.542,22.948 21.542,24.054 C21.542,25.16 20.642,26.06 19.536,26.06 C18.43,26.06 17.53,25.16 17.53,24.054 C17.53,22.948 18.43,22.049 19.536,22.049 L19.536,22.049 Z M19.012,27.007 L19.012,30.501 L20.012,30.501 L20.012,27.012 C21.442,26.782 22.542,25.549 22.542,24.054 C22.542,22.397 21.193,21.049 19.536,21.049 C17.879,21.049 16.53,22.397 16.53,24.054 C16.53,25.532 17.604,26.757 19.012,27.007 L19.012,27.007 Z M10,33.014 L29.012,33.014 L29.012,18 L10,18 L10,33.014 Z M14.046,12.484 C14.046,9.46 16.506,7 19.529,7 C22.553,7 25.012,9.46 25.012,12.484 L25.012,17 L14.046,17 L14.046,12.484 Z M29.512,17 L26.012,17 L26.012,12.484 C26.012,8.908 23.103,6 19.529,6 C15.954,6 13.046,8.908 13.046,12.484 L13.046,17 L9.5,17 C9.223,17 9,17.224 9,17.5 L9,33.514 C9,33.79 9.223,34.014 9.5,34.014 L29.512,34.014 C29.788,34.014 30.012,33.79 30.012,33.514 L30.012,17.5 C30.012,17.224 29.788,17 29.512,17 L29.512,17 Z" id="Fill-1" fill="#FFFFFF"></path>
    </g></g><text x="615" y="185" font-size="9.5" font-weight="700" fill="#65A30D" letter-spacing="0.06em">PUBLIC · 172.31.32.0/20</text><text x="836" y="185" text-anchor="end" font-size="8.5" fill="#78716C">subnet-049e852a6e…</text><text x="717" y="215" text-anchor="middle" font-size="12" font-style="italic" fill="#A8A29E">(no managed compute)</text><rect x="864" y="144" width="269" height="124" fill="none" stroke="#A8A29E" stroke-width="0.8"/><text x="874" y="160" font-size="9.5" font-weight="700" fill="#57534E" letter-spacing="0.08em">AZ · eu-central-1c</text><rect x="872" y="170" width="253" height="82" fill="none" stroke="#65A30D" stroke-width="1"/><rect x="872" y="170" width="253" height="22" fill="#65A30D" fill-opacity="0.07"/><g transform="translate(877,174) scale(0.3500)"><title>Icon-Architecture-Group/32/Public-subnet_32</title>
    <g id="Icon-Architecture-Group/32/Public-subnet_32" stroke="none" stroke-width="1" fill="none" fill-rule="evenodd">
        <rect id="Rectangle" fill="#7AA116" x="0" y="0" width="40" height="40"></rect>
        <path d="M19.536,22.049 C20.642,22.049 21.542,22.948 21.542,24.054 C21.542,25.16 20.642,26.06 19.536,26.06 C18.43,26.06 17.53,25.16 17.53,24.054 C17.53,22.948 18.43,22.049 19.536,22.049 L19.536,22.049 Z M19.012,27.007 L19.012,30.501 L20.012,30.501 L20.012,27.012 C21.442,26.782 22.542,25.549 22.542,24.054 C22.542,22.397 21.193,21.049 19.536,21.049 C17.879,21.049 16.53,22.397 16.53,24.054 C16.53,25.532 17.604,26.757 19.012,27.007 L19.012,27.007 Z M10,33.014 L29.012,33.014 L29.012,18 L10,18 L10,33.014 Z M14.046,12.484 C14.046,9.46 16.506,7 19.529,7 C22.553,7 25.012,9.46 25.012,12.484 L25.012,17 L14.046,17 L14.046,12.484 Z M29.512,17 L26.012,17 L26.012,12.484 C26.012,8.908 23.103,6 19.529,6 C15.954,6 13.046,8.908 13.046,12.484 L13.046,17 L9.5,17 C9.223,17 9,17.224 9,17.5 L9,33.514 C9,33.79 9.223,34.014 9.5,34.014 L29.512,34.014 C29.788,34.014 30.012,33.79 30.012,33.514 L30.012,17.5 C30.012,17.224 29.788,17 29.512,17 L29.512,17 Z" id="Fill-1" fill="#FFFFFF"></path>
    </g></g><text x="896" y="185" font-size="9.5" font-weight="700" fill="#65A30D" letter-spacing="0.06em">PUBLIC · 172.31.0.0/20</text><text x="1117" y="185" text-anchor="end" font-size="8.5" fill="#78716C">subnet-05e80d182e…</text><text x="998" y="215" text-anchor="middle" font-size="12" font-style="italic" fill="#A8A29E">(no managed compute)</text><text x="292" y="330" font-size="10" font-weight="700" fill="#64748B" letter-spacing="0.16em">UNATTRIBUTED NETWORK</text><rect class="bp-node" x="288" y="338" width="200" height="56" fill="#FFFFFF" stroke="#1C1917" stroke-width="0.9"/><g transform="translate(296,346) scale(0.8333)"><title>Icon-Resource/Networking-and-Content-Delivery/Res_Amazon-VPC_Internet-Gateway_48</title>
    <g id="Icon-Resource/Networking-and-Content-Delivery/Res_Amazon-VPC_Internet-Gateway_48" stroke="none" stroke-width="1" fill="none" fill-rule="evenodd">
        <path d="M33.4312,35.1778 L31.9332,35.1778 L31.9332,17.5018 C31.9332,17.1088 31.7022,16.7518 31.3442,16.5908 L31.2522,16.5488 C29.2432,15.6418 27.1642,14.7028 24.1762,14.7028 C21.0532,14.7028 18.7612,15.7118 16.4952,16.8368 C16.1552,17.0058 15.9402,17.3528 15.9402,17.7328 L15.9402,35.1778 L14.4772,35.1778 L14.4772,16.3118 C16.9112,14.3328 20.4202,13.2048 24.1862,13.2048 C27.6872,13.2048 31.0252,14.2018 33.4312,15.9528 L33.4312,35.1778 Z M24.1862,11.2048 C19.7612,11.2048 15.6172,12.6238 12.8152,15.0998 C12.6002,15.2888 12.4772,15.5618 12.4772,15.8488 L12.4772,36.1778 C12.4772,36.7308 12.9242,37.1778 13.4772,37.1778 L16.9402,37.1778 C17.4932,37.1778 17.9402,36.7308 17.9402,36.1778 L17.9402,18.3558 C19.8592,17.4288 21.7192,16.7028 24.1762,16.7028 C26.5112,16.7028 28.2092,17.3778 29.9332,18.1488 L29.9332,36.1778 C29.9332,36.7308 30.3802,37.1778 30.9332,37.1778 L34.4312,37.1778 C34.9842,37.1778 35.4312,36.7308 35.4312,36.1778 L35.4312,15.4578 C35.4312,15.1538 35.2922,14.8658 35.0532,14.6748 C32.2792,12.4698 28.3182,11.2048 24.1862,11.2048 L24.1862,11.2048 Z M23.9542,43.9088 C12.9522,43.9088 3.9992,34.9568 3.9992,23.9538 C3.9992,12.9508 12.9522,3.9998 23.9542,3.9998 C34.9572,3.9998 43.9092,12.9508 43.9092,23.9538 C43.9092,34.9568 34.9572,43.9088 23.9542,43.9088 L23.9542,43.9088 Z M23.9542,1.9998 C11.8482,1.9998 1.9992,11.8488 1.9992,23.9538 C1.9992,36.0608 11.8482,45.9088 23.9542,45.9088 C36.0602,45.9088 45.9092,36.0608 45.9092,23.9538 C45.9092,11.8488 36.0602,1.9998 23.9542,1.9998 L23.9542,1.9998 Z" id="AWS-Amazon-VPC_Internet-gateway_Resource-Icon_light-bg" fill="#8C4FFF"></path>
    </g></g><text x="344" y="360" font-size="11.5" font-weight="700" fill="#1C1917" font-family="Inter, ui-sans-serif, sans-serif">Internet Gateway</text><text x="344" y="376" font-size="9.5" fill="#57534E">igw-08954b0b7f9ce3678</text><text x="28" y="86" font-size="9.5" font-weight="700" fill="#57534E" letter-spacing="0.14em">EDGE · CDN</text><rect class="bp-node" x="28" y="98" width="200" height="56" fill="#FFFFFF" stroke="#1C1917" stroke-width="0.9"/><g transform="translate(36,106)"><rect width="40" height="40" rx="4" fill="none" stroke="#1C1917" stroke-width="1.4"/><circle cx="20" cy="14" r="5.5" fill="#1C1917"/><path d="M 8 33 a 12 12 0 0 1 24 0 Z" fill="#1C1917"/></g><text x="84" y="120" font-size="11.5" font-weight="700" fill="#1C1917" font-family="Inter, ui-sans-serif, sans-serif">Public users</text><text x="84" y="136" font-size="9.5" fill="#57534E">anonymous</text><rect class="bp-node" x="28" y="170" width="200" height="56" fill="#FFFFFF" stroke="#1C1917" stroke-width="0.9"/><g transform="translate(36,178) scale(0.6250)"><g id="Icon-Architecture/48/Arch_Amazon-API-Gateway_48">
<g id="Icon-Architecture-BG/48/Networking-Content-Delivery">
<rect id="Rectangle" width="64" height="64" fill="#8C4FFF"/>
</g>
<g id="Icon-Service/48/Amazon-API-Gateway_48">
<path id="Amazon-API-Gateway_Icon_48_Squid" fill-rule="evenodd" clip-rule="evenodd" d="M28 43.9999H31V41.9999H28V43.9999ZM33 43.9999H36V41.9999H33V43.9999ZM28 21.9998H31V19.9998H28V21.9998ZM33 21.9998H36V19.9998H33V21.9998ZM22 12.7408L12 18.5738V46.382L22 51.382V12.7408ZM24 19.9998H26V21.9998H24V41.9999H26V43.9999H24V53C24 53.347 23.82 53.668 23.525 53.851C23.365 53.95 23.183 54 23 54C22.847 54 22.694 53.965 22.553 53.895L10.553 47.895C10.214 47.725 10 47.379 10 47V17.9998C10 17.6448 10.188 17.3148 10.496 17.1358L22.496 10.1358C22.805 9.95575 23.188 9.95475 23.498 10.1328C23.809 10.3108 24 10.6418 24 10.9998V19.9998ZM52 18.5738L42 12.7408V51.382L52 46.382V18.5738ZM54 17.9998V47C54 47.379 53.786 47.725 53.447 47.895L41.447 53.895C41.306 53.965 41.153 54 41 54C40.817 54 40.635 53.95 40.475 53.851C40.18 53.668 40 53.347 40 53V43.9999H38V41.9999H40V21.9998H38V19.9998H40V10.9998C40 10.6418 40.191 10.3108 40.502 10.1328C40.812 9.95575 41.195 9.95575 41.504 10.1358L53.504 17.1358C53.812 17.3148 54 17.6448 54 17.9998ZM34.939 27.3419L33.061 26.6578L29.061 37.6579L30.939 38.3419L34.939 27.3419ZM39.707 32.7069C40.098 32.3159 40.098 31.6839 39.707 31.2929L36.707 28.2929L35.293 29.7069L37.586 31.9999L35.293 34.2929L36.707 35.7069L39.707 32.7069ZM27.293 35.7069L24.293 32.7069C23.902 32.3159 23.902 31.6839 24.293 31.2929L27.293 28.2929L28.707 29.7069L26.414 31.9999L28.707 34.2929L27.293 35.7069Z" fill="white"/>
</g>
</g></g><text x="84" y="192" font-size="11.5" font-weight="700" fill="#1C1917" font-family="Inter, ui-sans-serif, sans-serif">API Gateway</text><text x="84" y="208" font-size="9.5" fill="#57534E">a1b2c3d4e5</text><rect class="bp-chip" x="204" y="210" width="20" height="12" fill="#A16207"/><text x="214" y="219" text-anchor="middle" font-size="8.5" font-weight="800" fill="#FFFFFF" font-family="'JetBrains Mono', ui-monospace, monospace">W6</text><text x="1192" y="86" font-size="9.5" font-weight="700" fill="#57534E" letter-spacing="0.14em">DATA · STATE</text><rect class="bp-node" x="1192" y="98" width="200" height="56" fill="#FFFFFF" stroke="#1C1917" stroke-width="0.9"/><g transform="translate(1200,106) scale(0.6250)"><title>Icon-Architecture/48/Arch_Amazon-DynamoDB_48</title>
    <g id="Icon-Architecture/48/Arch_Amazon-DynamoDB_48" stroke="none" stroke-width="1" fill="none" fill-rule="evenodd">
        <g id="Icon-Architecture-BG/48/Database" fill="#C925D1">
            <rect id="Rectangle" x="0" y="0" width="64" height="64"></rect>
        </g>
        <path d="M46.5858287,25.2492763 L43.0008475,25.2492763 C42.6728493,25.2492763 42.3658509,25.086523 42.1788519,24.8145936 C41.9918528,24.5416533 41.9488531,24.1939071 42.0648525,23.8835638 L44.5578394,17.162156 L35.6448862,17.162156 L31.5539077,26.2601663 L36.0008843,26.2601663 C36.3218827,26.2601663 36.6238811,26.4158434 36.8128801,26.6806966 C36.9998791,26.943528 37.0518788,27.2821762 36.9488794,27.5904976 L33.2888986,38.6910812 L46.5858287,25.2492763 Z M49.7068123,24.9530855 L31.7079069,43.1491063 C31.5159079,43.3442081 31.2589093,43.4452971 31.0009106,43.4452971 C30.8189116,43.4452971 30.6379125,43.3957635 30.4759134,43.2946744 C30.0809155,43.0480173 29.9049164,42.5597574 30.0529156,42.1149658 L34.6128916,28.2819464 L30.0009159,28.2819464 C29.6609177,28.2819464 29.3449193,28.1070624 29.1599203,27.8189588 C28.9769213,27.5288333 28.9499214,27.1659238 29.0909207,26.8525479 L34.0908944,15.7327574 C34.2528935,15.3718697 34.6078917,15.1403759 35.0008896,15.1403759 L46.0008318,15.1403759 C46.32883,15.1403759 46.6358284,15.3031292 46.8228274,15.5750586 C47.0098265,15.8479989 47.0528262,16.1957451 46.9378268,16.5060883 L44.44384,23.2274962 L48.999816,23.2274962 C49.4038139,23.2274962 49.769812,23.4741534 49.9238111,23.8512154 C50.0788103,24.2292882 49.9928108,24.663971 49.7068123,24.9530855 L49.7068123,24.9530855 Z M41.0008581,44.2196388 C38.2908723,46.1059597 33.3138985,47.1016863 28.5329236,47.1016863 C23.7169489,47.1016863 18.6959753,46.0928181 15.9999895,44.1781923 L16.0009895,47.9943023 C16.0009895,49.6582273 20.7689644,51.9782199 28.5329236,51.9782199 C36.0278842,51.9782199 41.0008581,49.2761108 41.0008581,47.4888572 L41.0008581,44.2196388 Z M43.0648472,40.9504204 C43.0648472,41.1374351 43.0328474,41.3173735 43.0008475,41.4963011 L43.0008475,47.4888572 C43.0008475,51.0795387 36.5108817,54 28.5329236,54 C21.6299599,54 14.6619965,52.1106465 14.0599997,48.4997473 L14.001,48.4997473 L14,43.4452971 L14,30.3037265 L14,16.1512659 L14.001,16.1512659 C14.001,12.1552176 21.4879606,10 28.5329236,10 C32.4739029,10 36.262883,10.6398934 38.9298689,11.755916 L38.163873,13.6240408 C35.7318858,12.6050636 32.2209042,12.0217801 28.5329236,12.0217801 C20.7689644,12.0217801 16.0009895,14.4266875 16.0009895,16.1512659 C16.0009895,17.8758443 20.7689644,20.2807517 28.5329236,20.2807517 C28.7279226,20.2807517 28.9319215,20.2817626 29.1289205,20.2736755 L29.2069201,22.2934338 C28.9819212,22.3025318 28.7579224,22.3025318 28.5329236,22.3025318 C23.7159489,22.3025318 18.6959753,21.2936636 15.9999895,19.3790378 L15.9999895,23.7369848 L16.0009895,23.7369848 L16.0009895,23.7541699 C16.0059895,24.2838763 16.4899869,24.8974866 17.3649823,25.4736939 C19.3469719,26.7615678 22.9149531,27.642053 26.9039322,27.8250241 L26.8129326,29.8447824 C22.6869543,29.6547351 19.0629734,28.7762717 16.7269857,27.4287552 C16.4169873,27.7269678 16.0009895,28.4851353 16.0009895,28.8955567 C16.0009895,30.6201351 20.7689644,33.0250425 28.5329236,33.0250425 C29.2709197,33.0250425 29.9979159,32.9997703 30.6949122,32.9502366 L30.8359115,34.9669623 C30.0919154,35.0205394 29.3169195,35.0468226 28.5329236,35.0468226 C23.7159489,35.0468226 18.6959753,34.0379543 15.9999895,32.1233286 L15.9999895,35.7928594 L16.0009895,35.7928594 C16.0059895,36.339751 16.4899869,36.9533612 17.3649823,37.5295685 C19.6329704,39.0044571 23.9139479,39.9233562 28.5329236,39.9233562 L28.8629219,39.9233562 L28.8629219,41.9451362 L28.5329236,41.9451362 C23.7549487,41.9451362 18.6729754,40.9372789 16.0009895,39.4017369 C15.6789912,39.6999495 16.0009895,40.4126269 16.0009895,40.9504204 C16.0009895,42.6749989 20.7689644,45.0799063 28.5329236,45.0799063 C36.2978828,45.0799063 41.0648577,42.6749989 41.0648577,40.9504204 C41.0648577,40.3408537 40.4658609,39.7757662 39.9728635,39.4118458 C39.5638656,39.658503 39.113868,39.8950512 38.6008707,40.1113817 L37.8328747,38.2442678 C38.3638719,38.0208611 38.8228695,37.7812802 39.1968675,37.5326012 C40.2978617,36.798695 41.0008581,35.7544456 41.0008581,35.3581767 L43.0008475,35.3581767 C43.0008475,36.2983045 42.3798508,37.3051509 41.583855,38.1330699 C42.7758487,39.1732757 43.0648472,40.2114598 43.0648472,40.9504204 L43.0648472,40.9504204 Z M17.1419835,48.3885494 C17.9329793,48.796949 18.8579745,49.1608694 19.893969,49.4691908 L20.457966,47.5292928 C19.5419709,47.2573634 18.7319751,46.9399439 18.0519787,46.5881542 L17.1419835,48.3885494 Z M19.893969,37.3385103 L20.457966,35.3996232 C19.5419709,35.1266829 18.7319751,34.8102743 18.0519787,34.4584846 L17.1419835,36.2578689 C17.9329793,36.6672793 18.8579745,37.0301889 19.893969,37.3385103 L19.893969,37.3385103 Z M17.1419835,24.1281992 L18.0519787,22.3278041 C18.7319751,22.6795938 19.5419709,22.9960024 20.457966,23.2689427 L19.893969,25.2088407 C18.8579745,24.9005192 17.9329793,24.5365988 17.1419835,24.1281992 L17.1419835,24.1281992 Z" id="Amazon-DynamoDB_Icon_48_Squid" fill="#FFFFFF"></path>
    </g></g><text x="1248" y="120" font-size="11.5" font-weight="700" fill="#1C1917" font-family="Inter, ui-sans-serif, sans-serif">Amazon DynamoDB</text><text x="1248" y="136" font-size="9.5" fill="#57534E">cbx-serverless-items</text><rect class="bp-chip" x="1346" y="138" width="20" height="12" fill="#A16207"/><text x="1356" y="147" text-anchor="middle" font-size="8.5" font-weight="800" fill="#FFFFFF" font-family="'JetBrains Mono', ui-monospace, monospace">W4</text><rect class="bp-chip" x="1368" y="138" width="20" height="12" fill="#A16207"/><text x="1378" y="147" text-anchor="middle" font-size="8.5" font-weight="800" fill="#FFFFFF" font-family="'JetBrains Mono', ui-monospace, monospace">W7</text><rect class="bp-node" x="1192" y="170" width="200" height="56" fill="#FFFFFF" stroke="#1C1917" stroke-width="0.9"/><g transform="translate(1200,178) scale(0.6250)"><title>Icon-Architecture/48/Arch_AWS-Lambda_48</title>
    <g id="Icon-Architecture/48/Arch_AWS-Lambda_48" stroke="none" stroke-width="1" fill="none" fill-rule="evenodd">
        <g id="Icon-Architecture-BG/48/Compute" fill="#ED7100">
            <rect id="Rectangle" x="0" y="0" width="64" height="64"></rect>
        </g>
        <path d="M22.6794094,52 L13.5740701,52 L23.8376189,30.41 L28.3997494,39.861 L22.6794094,52 Z M24.7269406,27.667 C24.5606285,27.321 24.2120702,27.103 23.8306478,27.103 L23.8276601,27.103 C23.4452418,27.104 23.0966835,27.325 22.9323632,27.672 L11.0973143,52.569 C10.9499239,52.879 10.9708374,53.243 11.1540795,53.534 C11.3353298,53.824 11.6540117,54 11.9955989,54 L23.309802,54 C23.695208,54 24.0447622,53.777 24.2100784,53.428 L30.4044577,40.284 C30.5329264,40.01 30.5319305,39.692 30.3994783,39.42 L24.7269406,27.667 Z M51.0082382,52 L41.985557,52 L26.9547262,19.578 C26.7914017,19.226 26.4388599,19 26.0524581,19 L20.1279625,19 L20.1349337,12 L31.8146251,12 L46.7747483,44.42 C46.9380728,44.774 47.2906147,45 47.6790082,45 L51.0082382,45 L51.0082382,52 Z M52.0041191,43 L48.3143803,43 L33.354257,10.58 C33.1909326,10.226 32.8383907,10 32.450993,10 L19.1400486,10 C18.5913182,10 18.1451636,10.447 18.1441677,10.999 L18.1362006,19.999 C18.1362006,20.265 18.2407681,20.519 18.4269979,20.707 C18.6142235,20.895 18.8671772,21 19.1310857,21 L25.4170861,21 L40.4479168,53.422 C40.6112413,53.774 40.9627873,54 41.350185,54 L52.0041191,54 C52.5548412,54 53,53.552 53,53 L53,44 C53,43.448 52.5548412,43 52.0041191,43 L52.0041191,43 Z" id="AWS-Lambda_Icon_48_Squid" fill="#FFFFFF"></path>
    </g></g><text x="1248" y="192" font-size="11.5" font-weight="700" fill="#1C1917" font-family="Inter, ui-sans-serif, sans-serif">AWS Lambda</text><text x="1248" y="208" font-size="9.5" fill="#57534E">cbx-serverless-api</text><rect class="bp-chip" x="1324" y="210" width="20" height="12" fill="#A16207"/><text x="1334" y="219" text-anchor="middle" font-size="8.5" font-weight="800" fill="#FFFFFF" font-family="'JetBrains Mono', ui-monospace, monospace">W11</text><rect class="bp-chip" x="1346" y="210" width="20" height="12" fill="#A16207"/><text x="1356" y="219" text-anchor="middle" font-size="8.5" font-weight="800" fill="#FFFFFF" font-family="'JetBrains Mono', ui-monospace, monospace">W9</text><rect class="bp-chip" x="1368" y="210" width="20" height="12" fill="#1D4ED8"/><text x="1378" y="219" text-anchor="middle" font-size="8.5" font-weight="800" fill="#FFFFFF" font-family="'JetBrains Mono', ui-monospace, monospace">I3</text><rect class="bp-node" x="1192" y="242" width="200" height="56" fill="#FFFFFF" stroke="#1C1917" stroke-width="0.9"/><g transform="translate(1200,250) scale(0.6250)"><title>Icon-Architecture/48/Arch_AWS-Lambda_48</title>
    <g id="Icon-Architecture/48/Arch_AWS-Lambda_48" stroke="none" stroke-width="1" fill="none" fill-rule="evenodd">
        <g id="Icon-Architecture-BG/48/Compute" fill="#ED7100">
            <rect id="Rectangle" x="0" y="0" width="64" height="64"></rect>
        </g>
        <path d="M22.6794094,52 L13.5740701,52 L23.8376189,30.41 L28.3997494,39.861 L22.6794094,52 Z M24.7269406,27.667 C24.5606285,27.321 24.2120702,27.103 23.8306478,27.103 L23.8276601,27.103 C23.4452418,27.104 23.0966835,27.325 22.9323632,27.672 L11.0973143,52.569 C10.9499239,52.879 10.9708374,53.243 11.1540795,53.534 C11.3353298,53.824 11.6540117,54 11.9955989,54 L23.309802,54 C23.695208,54 24.0447622,53.777 24.2100784,53.428 L30.4044577,40.284 C30.5329264,40.01 30.5319305,39.692 30.3994783,39.42 L24.7269406,27.667 Z M51.0082382,52 L41.985557,52 L26.9547262,19.578 C26.7914017,19.226 26.4388599,19 26.0524581,19 L20.1279625,19 L20.1349337,12 L31.8146251,12 L46.7747483,44.42 C46.9380728,44.774 47.2906147,45 47.6790082,45 L51.0082382,45 L51.0082382,52 Z M52.0041191,43 L48.3143803,43 L33.354257,10.58 C33.1909326,10.226 32.8383907,10 32.450993,10 L19.1400486,10 C18.5913182,10 18.1451636,10.447 18.1441677,10.999 L18.1362006,19.999 C18.1362006,20.265 18.2407681,20.519 18.4269979,20.707 C18.6142235,20.895 18.8671772,21 19.1310857,21 L25.4170861,21 L40.4479168,53.422 C40.6112413,53.774 40.9627873,54 41.350185,54 L52.0041191,54 C52.5548412,54 53,53.552 53,53 L53,44 C53,43.448 52.5548412,43 52.0041191,43 L52.0041191,43 Z" id="AWS-Lambda_Icon_48_Squid" fill="#FFFFFF"></path>
    </g></g><text x="1248" y="264" font-size="11.5" font-weight="700" fill="#1C1917" font-family="Inter, ui-sans-serif, sans-serif">AWS Lambda</text><text x="1248" y="280" font-size="9.5" fill="#57534E">cbx-serverless-worker</text><rect class="bp-chip" x="1346" y="282" width="20" height="12" fill="#A16207"/><text x="1356" y="291" text-anchor="middle" font-size="8.5" font-weight="800" fill="#FFFFFF" font-family="'JetBrains Mono', ui-monospace, monospace">W2</text><rect class="bp-chip" x="1368" y="282" width="20" height="12" fill="#A16207"/><text x="1378" y="291" text-anchor="middle" font-size="8.5" font-weight="800" fill="#FFFFFF" font-family="'JetBrains Mono', ui-monospace, monospace">W5</text><rect class="bp-node" x="1192" y="314" width="200" height="56" fill="#FFFFFF" stroke="#1C1917" stroke-width="0.9"/><g transform="translate(1200,322) scale(0.6250)"><title>Icon-Architecture/48/Arch_Amazon-EventBridge_48</title>
    <g id="Icon-Architecture/48/Arch_Amazon-EventBridge_48" stroke="none" stroke-width="1" fill="none" fill-rule="evenodd">
        <g id="Icon-Architecture-BG/48/Application-Integration" fill="#E7157B">
            <rect id="Rectangle" x="0" y="0" width="64" height="64"></rect>
        </g>
        <path d="M43.2617752,52 C41.6961147,52 40.4226302,50.736 40.4226302,49.182 C40.4226302,47.628 41.6961147,46.364 43.2617752,46.364 C44.8274357,46.364 46.1009202,47.628 46.1009202,49.182 C46.1009202,50.736 44.8274357,52 43.2617752,52 L43.2617752,52 Z M36.5437415,39 L28.4000902,39 L24.3277608,32 L28.4000902,25 L36.5437415,25 L40.6160709,32 L36.5437415,39 Z M22.7459802,17.636 C21.1803197,17.636 19.9058277,16.372 19.9058277,14.818 C19.9058277,13.264 21.1803197,12 22.7459802,12 C24.3106333,12 25.5851253,13.264 25.5851253,14.818 C25.5851253,16.372 24.3106333,17.636 22.7459802,17.636 L22.7459802,17.636 Z M43.2617752,44.364 C42.7197383,44.364 42.206919,44.473 41.7192872,44.636 L38.6161763,39.438 L42.6522355,32.5 C42.8315712,32.19 42.8315712,31.81 42.6522355,31.5 L37.9975691,23.5 C37.8182335,23.19 37.4857573,23 37.125071,23 L28.8010766,23 L26.0243968,18.349 C26.9865627,17.468 27.6001324,16.217 27.6001324,14.818 C27.6001324,12.162 25.4229172,10 22.7459802,10 C20.0680358,10 17.8908206,12.162 17.8908206,14.818 C17.8908206,17.475 20.0680358,19.636 22.7459802,19.636 C23.2880172,19.636 23.8008365,19.527 24.2884682,19.364 L26.8535722,23.659 L22.2926036,31.5 C22.1122605,31.81 22.1122605,32.19 22.2926036,32.5 L26.9462626,40.5 C27.1255982,40.81 27.4580744,41 27.8187607,41 L37.125071,41 C37.1512661,41 37.1754462,40.992 37.1996263,40.99 L39.9833586,45.651 C39.0211927,46.532 38.4076231,47.783 38.4076231,49.182 C38.4076231,51.838 40.5848382,54 43.2617752,54 C45.9387122,54 48.1159273,51.838 48.1159273,49.182 C48.1159273,46.525 45.9387122,44.364 43.2617752,44.364 L43.2617752,44.364 Z M47.9335692,25.636 C46.3679087,25.636 45.0934167,24.372 45.0934167,22.818 C45.0934167,21.264 46.3679087,20 47.9335692,20 C49.4982222,20 50.7727142,21.264 50.7727142,22.818 C50.7727142,24.372 49.4982222,25.636 47.9335692,25.636 L47.9335692,25.636 Z M50.9792525,26.539 C52.0734013,25.655 52.7877213,24.325 52.7877213,22.818 C52.7877213,20.162 50.6105062,18 47.9335692,18 C47.2958194,18 46.6903098,18.13 46.1331603,18.353 L43.4048407,14.432 C43.21543,14.162 42.9051189,14 42.5746578,14 L33.5071257,14 L33.5071257,16 L42.0467259,16 L44.4576819,19.466 C43.6083564,20.334 43.0784096,21.515 43.0784096,22.818 C43.0784096,25.475 45.2556247,27.636 47.9335692,27.636 C48.3678032,27.636 48.7818872,27.561 49.1838811,27.454 L51.8295855,32 L47.9809219,38.616 L49.725918,39.616 L53.8647426,32.5 C54.0450858,32.19 54.0450858,31.81 53.8647426,31.5 L50.9792525,26.539 Z M17.7084624,43.636 C16.1428019,43.636 14.8683099,42.372 14.8683099,40.818 C14.8683099,39.264 16.1428019,38 17.7084624,38 C19.2731155,38 20.5476075,39.264 20.5476075,40.818 C20.5476075,42.372 19.2731155,43.636 17.7084624,43.636 L17.7084624,43.636 Z M20.6221627,44.647 C21.7928819,43.767 22.5626146,42.386 22.5626146,40.818 C22.5626146,38.162 20.3853994,36 17.7084624,36 C17.00724,36 16.3443026,36.155 15.742823,36.421 L13.1706664,32 L17.6429747,24.311 L15.8979785,23.311 L11.1345017,31.5 C10.9551661,31.81 10.9551661,32.19 11.1345017,32.5 L14.1086522,37.614 C13.337912,38.468 12.8533028,39.583 12.8533028,40.818 C12.8533028,43.475 15.030518,45.636 17.7084624,45.636 C18.0762012,45.636 18.4308425,45.588 18.7744012,45.511 L21.5954112,49.568 C21.7838143,49.838 22.0931179,50 22.4245866,50 L31.4921186,50 L31.4921186,48 L22.9545335,48 L20.6221627,44.647 Z" id="AWS-EventBridge_Icon_48_Squid" fill="#FFFFFF"></path>
    </g></g><text x="1248" y="336" font-size="11.5" font-weight="700" fill="#1C1917" font-family="Inter, ui-sans-serif, sans-serif">EventBridge</text><text x="1248" y="352" font-size="9.5" fill="#57534E">rule</text><line x1="28" y1="460" x2="1452" y2="460" stroke="#A8A29E" stroke-width="0.8" stroke-dasharray="2 2"/><text x="28" y="476" font-size="9.5" font-weight="700" fill="#57534E" letter-spacing="0.12em">IDENTITY · SECRETS · OBSERVABILITY (account-scoped)</text><rect class="bp-node" x="28" y="484" width="200" height="56" fill="#FFFFFF" stroke="#1C1917" stroke-width="0.9"/><g transform="translate(36,492) scale(0.8333)"><title>Icon-Resource/Security-Identity-and-Compliance/Res_AWS-Identity-Access-Management_Role_48</title>
    <g id="Icon-Resource/Security-Identity-and-Compliance/Res_AWS-Identity-Access-Management_Role_48" stroke="none" stroke-width="1" fill="none" fill-rule="evenodd">
        <path d="M44.0827,32.581 C43.9267,32.592 43.7697,32.604 43.6207,32.619 C43.0987,32.662 42.5527,32.714 42.0007,32.772 L41.8327,32.79 C40.0677,32.972 38.0697,33.177 37.1187,33.047 C36.5247,32.962 35.4307,32.487 34.2707,31.984 C32.3047,31.132 29.8567,30.07 27.6437,29.9 C24.5977,29.666 19.3347,30.24 15.9407,31.831 C13.9787,31.743 12.1587,31.215 10.7447,30.343 C10.7387,30.071 10.7327,29.799 10.7327,29.694 C10.7327,25.558 12.6707,21.679 16.0527,19.044 C18.3497,17.701 20.9967,16.992 23.7127,16.992 C29.8337,16.992 35.2657,20.609 37.3847,25.934 L36.5717,25.934 C35.7577,25.934 35.0757,26.51 34.9087,27.274 C34.7707,27.222 34.6447,27.175 34.4967,27.118 C32.4677,26.335 29.6837,25.264 26.4657,25.455 C21.7607,25.731 19.4457,26.015 17.6227,26.535 L18.1717,28.459 C19.8397,27.982 22.0397,27.719 26.5827,27.451 C29.3667,27.293 31.9197,28.269 33.7767,28.984 C34.1717,29.137 34.5287,29.27 34.8677,29.391 L34.8677,29.596 C34.8677,30.535 35.6327,31.3 36.5717,31.3 L40.2187,31.3 C41.1557,31.3 41.9197,30.538 41.9227,29.602 L42.2767,29.57 C42.8697,29.517 43.4147,29.464 43.8717,29.419 L44.0827,29.398 L44.0827,32.581 Z M9.7987,34.249 C7.1487,34.612 5.0567,34.288 4.1907,33.753 C4.7157,33.382 5.9007,32.863 6.7347,32.499 C7.4567,32.184 8.1877,31.851 8.8947,31.495 C10.0487,32.374 11.4777,33.033 13.0597,33.426 C12.1447,33.794 11.0117,34.084 9.7987,34.249 L9.7987,34.249 Z M36.8677,29.3 L39.9227,29.3 L39.9227,27.934 L36.8677,27.934 L36.8677,29.3 Z M26.5857,13 C34.9537,13 41.9817,19.295 43.0167,27.492 C42.7287,27.52 42.4247,27.549 42.1037,27.578 L41.9187,27.594 C41.8947,26.676 41.1437,25.934 40.2187,25.934 L39.5077,25.934 C37.3067,19.457 30.9317,14.992 23.7127,14.992 C21.0387,14.992 18.4227,15.604 16.0717,16.767 C16.0887,16.753 16.1027,16.738 16.1177,16.725 C19.0587,14.323 22.7757,13 26.5857,13 L26.5857,13 Z M45.5267,27.794 C45.3817,27.663 45.2107,27.568 45.0287,27.496 C43.9827,18.185 36.0497,11 26.5857,11 C22.3167,11 18.1497,12.483 14.8537,15.175 C10.5007,18.719 8.0047,23.97 8.0047,29.581 C8.0047,29.622 8.0077,29.663 8.0077,29.704 C7.3407,30.039 6.6357,30.359 5.9347,30.666 C3.7987,31.6 2.2557,32.274 2.0257,33.492 C1.9677,33.801 1.9577,34.406 2.5457,34.994 C3.5827,36.031 5.5727,36.403 7.5947,36.403 C8.4367,36.403 9.2827,36.339 10.0687,36.231 C11.4077,36.049 13.9077,35.558 15.6047,34.316 C18.2827,32.375 24.3377,31.649 27.4907,31.894 C29.3697,32.039 31.6457,33.026 33.4757,33.819 C34.8717,34.426 35.9757,34.904 36.8417,35.027 C38.0327,35.19 39.9777,34.99 42.0367,34.779 L42.2097,34.762 C42.7477,34.704 43.2777,34.654 43.8017,34.611 C44.0167,34.59 44.2297,34.575 44.5137,34.555 C45.3937,34.493 46.0827,33.755 46.0827,32.875 L46.0827,29.046 C46.0827,28.568 45.8807,28.112 45.5267,27.794 L45.5267,27.794 Z" id="AWS-Identity-and-Access-Management_Role_Resource-Icon_light-bg" fill="#DD344C"></path>
    </g></g><text x="84" y="506" font-size="11.5" font-weight="700" fill="#1C1917" font-family="Inter, ui-sans-serif, sans-serif">IAM Role</text><text x="84" y="522" font-size="9.5" fill="#57534E">OrganizationAccountAc…</text><rect class="bp-chip" x="182" y="524" width="20" height="12" fill="#1D4ED8"/><text x="192" y="533" text-anchor="middle" font-size="8.5" font-weight="800" fill="#FFFFFF" font-family="'JetBrains Mono', ui-monospace, monospace">I2</text><rect class="bp-chip" x="204" y="524" width="20" height="12" fill="#1D4ED8"/><text x="214" y="533" text-anchor="middle" font-size="8.5" font-weight="800" fill="#FFFFFF" font-family="'JetBrains Mono', ui-monospace, monospace">I4</text><rect class="bp-node" x="244" y="484" width="200" height="56" fill="#FFFFFF" stroke="#1C1917" stroke-width="0.9"/><g transform="translate(252,492) scale(0.6250)"><title>Icon-Architecture/48/Arch_AWS-Identity-and-Access-Management_48</title>
    <g id="Icon-Architecture/48/Arch_AWS-Identity-and-Access-Management_48" stroke="none" stroke-width="1" fill="none" fill-rule="evenodd">
        <g id="Icon-Architecture-BG/48/Security-Identity-Compliance" fill="#DD344C">
            <rect id="Rectangle" x="0" y="0" width="64" height="64"></rect>
        </g>
        <path d="M12,47 L52,47 L52,18 L12,18 L12,47 Z M54,17 L54,48 C54,48.552 53.553,49 53,49 L11,49 C10.447,49 10,48.552 10,48 L10,17 C10,16.448 10.447,16 11,16 L53,16 C53.553,16 54,16.448 54,17 L54,17 Z M35,39 L47,39 L47,37 L35,37 L35,39 Z M45,35 L49,35 L49,33 L45,33 L45,35 Z M35,35 L41,35 L41,33 L35,33 L35,35 Z M22.5,37.5 C22.5,37.776 22.725,38 23,38 C23.275,38 23.5,37.776 23.5,37.5 C23.5,37.224 23.275,37 23,37 C22.725,37 22.5,37.224 22.5,37.5 L22.5,37.5 Z M25.5,37.5 C25.5,38.522 24.882,39.401 24,39.788 L24,42 L22,42 L22,39.788 C21.118,39.401 20.5,38.522 20.5,37.5 C20.5,36.122 21.621,35 23,35 C24.379,35 25.5,36.122 25.5,37.5 L25.5,37.5 Z M16,42.995 L29.995,43 L29.996,41 L27,41 L27,39 L29.997,39 L29.998,37 L27,37 L27,35 L29.999,35 L30,33.005 L16.005,33 L16,42.995 Z M18,31.001 L28.001,31.004 L28.002,26 C28.002,24.976 27.2,24.273 26.722,23.945 C25.847,23.345 24.174,23 23.002,23 L23,23 C20.873,23 18.003,24.232 18.002,26 L18,31.001 Z M14.293,44.701 C14.105,44.513 14,44.259 14,43.994 L14.005,32 C14.005,31.447 14.453,31 15.005,31 L16,31 L16.002,26 C16.003,22.911 19.876,21 23,21 L23.002,21 C24.567,21 26.653,21.473 27.854,22.295 C29.239,23.246 30.003,24.562 30.002,26 L30.001,31.005 L31,31.006 C31.266,31.006 31.52,31.111 31.707,31.299 C31.895,31.487 32,31.741 32,32.006 L31.995,44 C31.995,44.553 31.547,45 30.995,45 L15,44.994 C14.734,44.994 14.48,44.889 14.293,44.701 L14.293,44.701 Z M47,30 L49,30 L49,28 L47,28 L47,30 Z M35,30 L44,30 L44,28 L35,28 L35,30 Z" id="AWS-Identity-and-Access-Management_Icon_48_Squid" fill="#FFFFFF"></path>
    </g></g><text x="300" y="506" font-size="11.5" font-weight="700" fill="#1C1917" font-family="Inter, ui-sans-serif, sans-serif">IAM User</text><text x="300" y="522" font-size="9.5" fill="#57534E">cbx-audit-fixtures</text><rect class="bp-node" x="460" y="484" width="200" height="56" fill="#FFFFFF" stroke="#1C1917" stroke-width="0.9"/><g transform="translate(468,492) scale(0.8333)"><title>Icon-Resource/Security-Identity-and-Compliance/Res_AWS-Identity-Access-Management_Role_48</title>
    <g id="Icon-Resource/Security-Identity-and-Compliance/Res_AWS-Identity-Access-Management_Role_48" stroke="none" stroke-width="1" fill="none" fill-rule="evenodd">
        <path d="M44.0827,32.581 C43.9267,32.592 43.7697,32.604 43.6207,32.619 C43.0987,32.662 42.5527,32.714 42.0007,32.772 L41.8327,32.79 C40.0677,32.972 38.0697,33.177 37.1187,33.047 C36.5247,32.962 35.4307,32.487 34.2707,31.984 C32.3047,31.132 29.8567,30.07 27.6437,29.9 C24.5977,29.666 19.3347,30.24 15.9407,31.831 C13.9787,31.743 12.1587,31.215 10.7447,30.343 C10.7387,30.071 10.7327,29.799 10.7327,29.694 C10.7327,25.558 12.6707,21.679 16.0527,19.044 C18.3497,17.701 20.9967,16.992 23.7127,16.992 C29.8337,16.992 35.2657,20.609 37.3847,25.934 L36.5717,25.934 C35.7577,25.934 35.0757,26.51 34.9087,27.274 C34.7707,27.222 34.6447,27.175 34.4967,27.118 C32.4677,26.335 29.6837,25.264 26.4657,25.455 C21.7607,25.731 19.4457,26.015 17.6227,26.535 L18.1717,28.459 C19.8397,27.982 22.0397,27.719 26.5827,27.451 C29.3667,27.293 31.9197,28.269 33.7767,28.984 C34.1717,29.137 34.5287,29.27 34.8677,29.391 L34.8677,29.596 C34.8677,30.535 35.6327,31.3 36.5717,31.3 L40.2187,31.3 C41.1557,31.3 41.9197,30.538 41.9227,29.602 L42.2767,29.57 C42.8697,29.517 43.4147,29.464 43.8717,29.419 L44.0827,29.398 L44.0827,32.581 Z M9.7987,34.249 C7.1487,34.612 5.0567,34.288 4.1907,33.753 C4.7157,33.382 5.9007,32.863 6.7347,32.499 C7.4567,32.184 8.1877,31.851 8.8947,31.495 C10.0487,32.374 11.4777,33.033 13.0597,33.426 C12.1447,33.794 11.0117,34.084 9.7987,34.249 L9.7987,34.249 Z M36.8677,29.3 L39.9227,29.3 L39.9227,27.934 L36.8677,27.934 L36.8677,29.3 Z M26.5857,13 C34.9537,13 41.9817,19.295 43.0167,27.492 C42.7287,27.52 42.4247,27.549 42.1037,27.578 L41.9187,27.594 C41.8947,26.676 41.1437,25.934 40.2187,25.934 L39.5077,25.934 C37.3067,19.457 30.9317,14.992 23.7127,14.992 C21.0387,14.992 18.4227,15.604 16.0717,16.767 C16.0887,16.753 16.1027,16.738 16.1177,16.725 C19.0587,14.323 22.7757,13 26.5857,13 L26.5857,13 Z M45.5267,27.794 C45.3817,27.663 45.2107,27.568 45.0287,27.496 C43.9827,18.185 36.0497,11 26.5857,11 C22.3167,11 18.1497,12.483 14.8537,15.175 C10.5007,18.719 8.0047,23.97 8.0047,29.581 C8.0047,29.622 8.0077,29.663 8.0077,29.704 C7.3407,30.039 6.6357,30.359 5.9347,30.666 C3.7987,31.6 2.2557,32.274 2.0257,33.492 C1.9677,33.801 1.9577,34.406 2.5457,34.994 C3.5827,36.031 5.5727,36.403 7.5947,36.403 C8.4367,36.403 9.2827,36.339 10.0687,36.231 C11.4077,36.049 13.9077,35.558 15.6047,34.316 C18.2827,32.375 24.3377,31.649 27.4907,31.894 C29.3697,32.039 31.6457,33.026 33.4757,33.819 C34.8717,34.426 35.9757,34.904 36.8417,35.027 C38.0327,35.19 39.9777,34.99 42.0367,34.779 L42.2097,34.762 C42.7477,34.704 43.2777,34.654 43.8017,34.611 C44.0167,34.59 44.2297,34.575 44.5137,34.555 C45.3937,34.493 46.0827,33.755 46.0827,32.875 L46.0827,29.046 C46.0827,28.568 45.8807,28.112 45.5267,27.794 L45.5267,27.794 Z" id="AWS-Identity-and-Access-Management_Role_Resource-Icon_light-bg" fill="#DD344C"></path>
    </g></g><text x="516" y="506" font-size="11.5" font-weight="700" fill="#1C1917" font-family="Inter, ui-sans-serif, sans-serif">IAM Role</text><text x="516" y="522" font-size="9.5" fill="#57534E">cbx-serverless-lambda…</text><rect class="bp-chip" x="636" y="524" width="20" height="12" fill="#B91C1C"/><text x="646" y="533" text-anchor="middle" font-size="8.5" font-weight="800" fill="#FFFFFF" font-family="'JetBrains Mono', ui-monospace, monospace">C1</text><rect class="bp-node" x="676" y="484" width="200" height="56" fill="#FFFFFF" stroke="#1C1917" stroke-width="0.9"/><g transform="translate(684,492) scale(0.6250)"><title>Icon-Architecture/48/Arch_AWS-Key-Management-Service_48</title>
    <g id="Icon-Architecture/48/Arch_AWS-Key-Management-Service_48" stroke="none" stroke-width="1" fill="none" fill-rule="evenodd">
        <g id="Icon-Architecture-BG/48/Security-Identity-Compliance" fill="#DD344C">
            <rect id="Rectangle" x="0" y="0" width="64" height="64"></rect>
        </g>
        <path d="M42.8407901,41.9967832 L48.8407901,41.9967832 L48.8407901,39.9967832 L42.8407901,39.9967832 L42.8407901,41.9967832 Z M34.8407901,41.9967832 L40.8407901,41.9967832 L40.8407901,39.9967832 L34.8407901,39.9967832 L34.8407901,41.9967832 Z M26.8407901,41.9967832 L32.8407901,41.9967832 L32.8407901,39.9967832 L26.8407901,39.9967832 L26.8407901,41.9967832 Z M36.8407901,35.4967832 C36.8407901,34.6697832 37.5137901,33.9967832 38.3407901,33.9967832 C39.1687901,33.9967832 39.8407901,34.6697832 39.8407901,35.4967832 C39.8407901,36.3237832 39.1687901,36.9967832 38.3407901,36.9967832 C37.5137901,36.9967832 36.8407901,36.3237832 36.8407901,35.4967832 L36.8407901,35.4967832 Z M41.8407901,35.4967832 C41.8407901,33.5667832 40.2707901,31.9967832 38.3407901,31.9967832 C36.4117901,31.9967832 34.8407901,33.5667832 34.8407901,35.4967832 C34.8407901,37.4267832 36.4117901,38.9967832 38.3407901,38.9967832 C40.2707901,38.9967832 41.8407901,37.4267832 41.8407901,35.4967832 L41.8407901,35.4967832 Z M30.3407901,36.9967832 C29.5137901,36.9967832 28.8407901,36.3237832 28.8407901,35.4967832 C28.8407901,34.6697832 29.5137901,33.9967832 30.3407901,33.9967832 C31.1687901,33.9967832 31.8407901,34.6697832 31.8407901,35.4967832 C31.8407901,36.3237832 31.1687901,36.9967832 30.3407901,36.9967832 L30.3407901,36.9967832 Z M30.3407901,31.9967832 C28.4117901,31.9967832 26.8407901,33.5667832 26.8407901,35.4967832 C26.8407901,37.4267832 28.4117901,38.9967832 30.3407901,38.9967832 C32.2707901,38.9967832 33.8407901,37.4267832 33.8407901,35.4967832 C33.8407901,33.5667832 32.2707901,31.9967832 30.3407901,31.9967832 L30.3407901,31.9967832 Z M53.8407901,25.9967832 L53.8407901,45.9967832 C53.8407901,46.5487832 53.3937901,46.9967832 52.8407901,46.9967832 L26.8407901,46.9967832 L26.8407901,44.9967832 L51.8407901,44.9967832 L51.8407901,26.9967832 L32.8407901,26.9967832 L32.8407901,24.9967832 L52.8407901,24.9967832 C53.3937901,24.9967832 53.8407901,25.4447832 53.8407901,25.9967832 L53.8407901,25.9967832 Z M20.9037901,23.8917832 C19.8127901,23.8917832 18.9247901,23.0037832 18.9247901,21.9127832 C18.9247901,20.8217832 19.8127901,19.9337832 20.9037901,19.9337832 C21.9947901,19.9337832 22.8817901,20.8217832 22.8817901,21.9127832 C22.8817901,23.0037832 21.9947901,23.8917832 20.9037901,23.8917832 L20.9037901,23.8917832 Z M20.9037901,17.9337832 C18.7107901,17.9337832 16.9247901,19.7187832 16.9247901,21.9127832 C16.9247901,24.1067832 18.7107901,25.8917832 20.9037901,25.8917832 C23.0967901,25.8917832 24.8817901,24.1067832 24.8817901,21.9127832 C24.8817901,19.7187832 23.0967901,17.9337832 20.9037901,17.9337832 L20.9037901,17.9337832 Z M23.5337901,30.0457832 C23.1207901,30.1787832 22.8407901,30.5627832 22.8407901,30.9967832 L22.8407901,49.5767832 L20.9017901,51.4757832 L18.8407901,48.6687832 L18.8407901,46.0387832 C18.8407901,45.7467832 18.7127901,45.4677832 18.4897901,45.2777832 L16.3837901,43.4857832 L18.4897901,41.6947832 C18.7127901,41.5047832 18.8407901,41.2257832 18.8407901,40.9327832 L18.8407901,39.2307832 C18.8407901,38.9377832 18.7127901,38.6587832 18.4897901,38.4687832 L16.3837901,36.6777832 L18.4897901,34.8857832 C18.7127901,34.6957832 18.8407901,34.4167832 18.8407901,34.1237832 L18.8407901,30.9967832 C18.8407901,30.5607832 18.5587901,30.1747832 18.1427901,30.0437832 C13.7627901,28.6557832 11.2567901,24.3907832 12.1847901,19.9017832 C12.8557901,16.6557832 15.3507901,14.0537832 18.5437901,13.2707832 C21.2617901,12.6027832 24.0527901,13.1857832 26.1957901,14.8667832 C28.3377901,16.5457832 29.5647901,19.0677832 29.5647901,21.7837832 C29.5647901,25.5577832 27.1407901,28.8777832 23.5337901,30.0457832 L23.5337901,30.0457832 Z M31.5647901,21.7837832 C31.5647901,18.4497832 30.0577901,15.3537832 27.4297901,13.2927832 C24.8017901,11.2307832 21.3907901,10.5137832 18.0667901,11.3287832 C14.1297901,12.2937832 11.0517901,15.4997832 10.2257901,19.4967832 C9.15579012,24.6777832 11.9757901,29.7947832 16.8407901,31.7027832 L16.8407901,33.6627832 L14.1927901,35.9157832 C13.9697901,36.1057832 13.8407901,36.3847832 13.8407901,36.6777832 C13.8407901,36.9707832 13.9697901,37.2487832 14.1927901,37.4387832 L16.8407901,39.6927832 L16.8407901,40.4707832 L14.1927901,42.7247832 C13.9697901,42.9137832 13.8407901,43.1927832 13.8407901,43.4857832 C13.8407901,43.7787832 13.9697901,44.0577832 14.1927901,44.2477832 L16.8407901,46.5007832 L16.8407901,48.9967832 C16.8407901,49.2097832 16.9097901,49.4167832 17.0357901,49.5887832 L19.9717901,53.5887832 C20.1427901,53.8217832 20.4077901,53.9697832 20.6967901,53.9937832 C20.7237901,53.9957832 20.7507901,53.9967832 20.7777901,53.9967832 C21.0387901,53.9967832 21.2897901,53.8947832 21.4767901,53.7107832 L24.5407901,50.7107832 C24.7327901,50.5227832 24.8407901,50.2657832 24.8407901,49.9967832 L24.8407901,31.6977832 C28.8917901,30.0787832 31.5647901,26.1817832 31.5647901,21.7837832 L31.5647901,21.7837832 Z" id="AWS-Key-Management-Service_Icon_48_Squid" fill="#FFFFFF"></path>
    </g></g><text x="732" y="506" font-size="11.5" font-weight="700" fill="#1C1917" font-family="Inter, ui-sans-serif, sans-serif">AWS KMS</text><text x="732" y="522" font-size="9.5" fill="#57534E">5a8e2ca5-ac89-4209-81…</text><rect class="bp-node" x="892" y="484" width="200" height="56" fill="#FFFFFF" stroke="#1C1917" stroke-width="0.9"/><g transform="translate(900,492) scale(0.6250)"><title>Icon-Architecture/48/Arch_AWS-Key-Management-Service_48</title>
    <g id="Icon-Architecture/48/Arch_AWS-Key-Management-Service_48" stroke="none" stroke-width="1" fill="none" fill-rule="evenodd">
        <g id="Icon-Architecture-BG/48/Security-Identity-Compliance" fill="#DD344C">
            <rect id="Rectangle" x="0" y="0" width="64" height="64"></rect>
        </g>
        <path d="M42.8407901,41.9967832 L48.8407901,41.9967832 L48.8407901,39.9967832 L42.8407901,39.9967832 L42.8407901,41.9967832 Z M34.8407901,41.9967832 L40.8407901,41.9967832 L40.8407901,39.9967832 L34.8407901,39.9967832 L34.8407901,41.9967832 Z M26.8407901,41.9967832 L32.8407901,41.9967832 L32.8407901,39.9967832 L26.8407901,39.9967832 L26.8407901,41.9967832 Z M36.8407901,35.4967832 C36.8407901,34.6697832 37.5137901,33.9967832 38.3407901,33.9967832 C39.1687901,33.9967832 39.8407901,34.6697832 39.8407901,35.4967832 C39.8407901,36.3237832 39.1687901,36.9967832 38.3407901,36.9967832 C37.5137901,36.9967832 36.8407901,36.3237832 36.8407901,35.4967832 L36.8407901,35.4967832 Z M41.8407901,35.4967832 C41.8407901,33.5667832 40.2707901,31.9967832 38.3407901,31.9967832 C36.4117901,31.9967832 34.8407901,33.5667832 34.8407901,35.4967832 C34.8407901,37.4267832 36.4117901,38.9967832 38.3407901,38.9967832 C40.2707901,38.9967832 41.8407901,37.4267832 41.8407901,35.4967832 L41.8407901,35.4967832 Z M30.3407901,36.9967832 C29.5137901,36.9967832 28.8407901,36.3237832 28.8407901,35.4967832 C28.8407901,34.6697832 29.5137901,33.9967832 30.3407901,33.9967832 C31.1687901,33.9967832 31.8407901,34.6697832 31.8407901,35.4967832 C31.8407901,36.3237832 31.1687901,36.9967832 30.3407901,36.9967832 L30.3407901,36.9967832 Z M30.3407901,31.9967832 C28.4117901,31.9967832 26.8407901,33.5667832 26.8407901,35.4967832 C26.8407901,37.4267832 28.4117901,38.9967832 30.3407901,38.9967832 C32.2707901,38.9967832 33.8407901,37.4267832 33.8407901,35.4967832 C33.8407901,33.5667832 32.2707901,31.9967832 30.3407901,31.9967832 L30.3407901,31.9967832 Z M53.8407901,25.9967832 L53.8407901,45.9967832 C53.8407901,46.5487832 53.3937901,46.9967832 52.8407901,46.9967832 L26.8407901,46.9967832 L26.8407901,44.9967832 L51.8407901,44.9967832 L51.8407901,26.9967832 L32.8407901,26.9967832 L32.8407901,24.9967832 L52.8407901,24.9967832 C53.3937901,24.9967832 53.8407901,25.4447832 53.8407901,25.9967832 L53.8407901,25.9967832 Z M20.9037901,23.8917832 C19.8127901,23.8917832 18.9247901,23.0037832 18.9247901,21.9127832 C18.9247901,20.8217832 19.8127901,19.9337832 20.9037901,19.9337832 C21.9947901,19.9337832 22.8817901,20.8217832 22.8817901,21.9127832 C22.8817901,23.0037832 21.9947901,23.8917832 20.9037901,23.8917832 L20.9037901,23.8917832 Z M20.9037901,17.9337832 C18.7107901,17.9337832 16.9247901,19.7187832 16.9247901,21.9127832 C16.9247901,24.1067832 18.7107901,25.8917832 20.9037901,25.8917832 C23.0967901,25.8917832 24.8817901,24.1067832 24.8817901,21.9127832 C24.8817901,19.7187832 23.0967901,17.9337832 20.9037901,17.9337832 L20.9037901,17.9337832 Z M23.5337901,30.0457832 C23.1207901,30.1787832 22.8407901,30.5627832 22.8407901,30.9967832 L22.8407901,49.5767832 L20.9017901,51.4757832 L18.8407901,48.6687832 L18.8407901,46.0387832 C18.8407901,45.7467832 18.7127901,45.4677832 18.4897901,45.2777832 L16.3837901,43.4857832 L18.4897901,41.6947832 C18.7127901,41.5047832 18.8407901,41.2257832 18.8407901,40.9327832 L18.8407901,39.2307832 C18.8407901,38.9377832 18.7127901,38.6587832 18.4897901,38.4687832 L16.3837901,36.6777832 L18.4897901,34.8857832 C18.7127901,34.6957832 18.8407901,34.4167832 18.8407901,34.1237832 L18.8407901,30.9967832 C18.8407901,30.5607832 18.5587901,30.1747832 18.1427901,30.0437832 C13.7627901,28.6557832 11.2567901,24.3907832 12.1847901,19.9017832 C12.8557901,16.6557832 15.3507901,14.0537832 18.5437901,13.2707832 C21.2617901,12.6027832 24.0527901,13.1857832 26.1957901,14.8667832 C28.3377901,16.5457832 29.5647901,19.0677832 29.5647901,21.7837832 C29.5647901,25.5577832 27.1407901,28.8777832 23.5337901,30.0457832 L23.5337901,30.0457832 Z M31.5647901,21.7837832 C31.5647901,18.4497832 30.0577901,15.3537832 27.4297901,13.2927832 C24.8017901,11.2307832 21.3907901,10.5137832 18.0667901,11.3287832 C14.1297901,12.2937832 11.0517901,15.4997832 10.2257901,19.4967832 C9.15579012,24.6777832 11.9757901,29.7947832 16.8407901,31.7027832 L16.8407901,33.6627832 L14.1927901,35.9157832 C13.9697901,36.1057832 13.8407901,36.3847832 13.8407901,36.6777832 C13.8407901,36.9707832 13.9697901,37.2487832 14.1927901,37.4387832 L16.8407901,39.6927832 L16.8407901,40.4707832 L14.1927901,42.7247832 C13.9697901,42.9137832 13.8407901,43.1927832 13.8407901,43.4857832 C13.8407901,43.7787832 13.9697901,44.0577832 14.1927901,44.2477832 L16.8407901,46.5007832 L16.8407901,48.9967832 C16.8407901,49.2097832 16.9097901,49.4167832 17.0357901,49.5887832 L19.9717901,53.5887832 C20.1427901,53.8217832 20.4077901,53.9697832 20.6967901,53.9937832 C20.7237901,53.9957832 20.7507901,53.9967832 20.7777901,53.9967832 C21.0387901,53.9967832 21.2897901,53.8947832 21.4767901,53.7107832 L24.5407901,50.7107832 C24.7327901,50.5227832 24.8407901,50.2657832 24.8407901,49.9967832 L24.8407901,31.6977832 C28.8917901,30.0787832 31.5647901,26.1817832 31.5647901,21.7837832 L31.5647901,21.7837832 Z" id="AWS-Key-Management-Service_Icon_48_Squid" fill="#FFFFFF"></path>
    </g></g><text x="948" y="506" font-size="11.5" font-weight="700" fill="#1C1917" font-family="Inter, ui-sans-serif, sans-serif">AWS KMS</text><text x="948" y="522" font-size="9.5" fill="#57534E">6e9fe06a-3c4a-401c-af…</text><rect class="bp-node" x="1108" y="484" width="200" height="56" fill="#FFFFFF" stroke="#1C1917" stroke-width="0.9"/><g transform="translate(1116,492) scale(0.6250)"><title>Icon-Architecture/48/Arch_AWS-Key-Management-Service_48</title>
    <g id="Icon-Architecture/48/Arch_AWS-Key-Management-Service_48" stroke="none" stroke-width="1" fill="none" fill-rule="evenodd">
        <g id="Icon-Architecture-BG/48/Security-Identity-Compliance" fill="#DD344C">
            <rect id="Rectangle" x="0" y="0" width="64" height="64"></rect>
        </g>
        <path d="M42.8407901,41.9967832 L48.8407901,41.9967832 L48.8407901,39.9967832 L42.8407901,39.9967832 L42.8407901,41.9967832 Z M34.8407901,41.9967832 L40.8407901,41.9967832 L40.8407901,39.9967832 L34.8407901,39.9967832 L34.8407901,41.9967832 Z M26.8407901,41.9967832 L32.8407901,41.9967832 L32.8407901,39.9967832 L26.8407901,39.9967832 L26.8407901,41.9967832 Z M36.8407901,35.4967832 C36.8407901,34.6697832 37.5137901,33.9967832 38.3407901,33.9967832 C39.1687901,33.9967832 39.8407901,34.6697832 39.8407901,35.4967832 C39.8407901,36.3237832 39.1687901,36.9967832 38.3407901,36.9967832 C37.5137901,36.9967832 36.8407901,36.3237832 36.8407901,35.4967832 L36.8407901,35.4967832 Z M41.8407901,35.4967832 C41.8407901,33.5667832 40.2707901,31.9967832 38.3407901,31.9967832 C36.4117901,31.9967832 34.8407901,33.5667832 34.8407901,35.4967832 C34.8407901,37.4267832 36.4117901,38.9967832 38.3407901,38.9967832 C40.2707901,38.9967832 41.8407901,37.4267832 41.8407901,35.4967832 L41.8407901,35.4967832 Z M30.3407901,36.9967832 C29.5137901,36.9967832 28.8407901,36.3237832 28.8407901,35.4967832 C28.8407901,34.6697832 29.5137901,33.9967832 30.3407901,33.9967832 C31.1687901,33.9967832 31.8407901,34.6697832 31.8407901,35.4967832 C31.8407901,36.3237832 31.1687901,36.9967832 30.3407901,36.9967832 L30.3407901,36.9967832 Z M30.3407901,31.9967832 C28.4117901,31.9967832 26.8407901,33.5667832 26.8407901,35.4967832 C26.8407901,37.4267832 28.4117901,38.9967832 30.3407901,38.9967832 C32.2707901,38.9967832 33.8407901,37.4267832 33.8407901,35.4967832 C33.8407901,33.5667832 32.2707901,31.9967832 30.3407901,31.9967832 L30.3407901,31.9967832 Z M53.8407901,25.9967832 L53.8407901,45.9967832 C53.8407901,46.5487832 53.3937901,46.9967832 52.8407901,46.9967832 L26.8407901,46.9967832 L26.8407901,44.9967832 L51.8407901,44.9967832 L51.8407901,26.9967832 L32.8407901,26.9967832 L32.8407901,24.9967832 L52.8407901,24.9967832 C53.3937901,24.9967832 53.8407901,25.4447832 53.8407901,25.9967832 L53.8407901,25.9967832 Z M20.9037901,23.8917832 C19.8127901,23.8917832 18.9247901,23.0037832 18.9247901,21.9127832 C18.9247901,20.8217832 19.8127901,19.9337832 20.9037901,19.9337832 C21.9947901,19.9337832 22.8817901,20.8217832 22.8817901,21.9127832 C22.8817901,23.0037832 21.9947901,23.8917832 20.9037901,23.8917832 L20.9037901,23.8917832 Z M20.9037901,17.9337832 C18.7107901,17.9337832 16.9247901,19.7187832 16.9247901,21.9127832 C16.9247901,24.1067832 18.7107901,25.8917832 20.9037901,25.8917832 C23.0967901,25.8917832 24.8817901,24.1067832 24.8817901,21.9127832 C24.8817901,19.7187832 23.0967901,17.9337832 20.9037901,17.9337832 L20.9037901,17.9337832 Z M23.5337901,30.0457832 C23.1207901,30.1787832 22.8407901,30.5627832 22.8407901,30.9967832 L22.8407901,49.5767832 L20.9017901,51.4757832 L18.8407901,48.6687832 L18.8407901,46.0387832 C18.8407901,45.7467832 18.7127901,45.4677832 18.4897901,45.2777832 L16.3837901,43.4857832 L18.4897901,41.6947832 C18.7127901,41.5047832 18.8407901,41.2257832 18.8407901,40.9327832 L18.8407901,39.2307832 C18.8407901,38.9377832 18.7127901,38.6587832 18.4897901,38.4687832 L16.3837901,36.6777832 L18.4897901,34.8857832 C18.7127901,34.6957832 18.8407901,34.4167832 18.8407901,34.1237832 L18.8407901,30.9967832 C18.8407901,30.5607832 18.5587901,30.1747832 18.1427901,30.0437832 C13.7627901,28.6557832 11.2567901,24.3907832 12.1847901,19.9017832 C12.8557901,16.6557832 15.3507901,14.0537832 18.5437901,13.2707832 C21.2617901,12.6027832 24.0527901,13.1857832 26.1957901,14.8667832 C28.3377901,16.5457832 29.5647901,19.0677832 29.5647901,21.7837832 C29.5647901,25.5577832 27.1407901,28.8777832 23.5337901,30.0457832 L23.5337901,30.0457832 Z M31.5647901,21.7837832 C31.5647901,18.4497832 30.0577901,15.3537832 27.4297901,13.2927832 C24.8017901,11.2307832 21.3907901,10.5137832 18.0667901,11.3287832 C14.1297901,12.2937832 11.0517901,15.4997832 10.2257901,19.4967832 C9.15579012,24.6777832 11.9757901,29.7947832 16.8407901,31.7027832 L16.8407901,33.6627832 L14.1927901,35.9157832 C13.9697901,36.1057832 13.8407901,36.3847832 13.8407901,36.6777832 C13.8407901,36.9707832 13.9697901,37.2487832 14.1927901,37.4387832 L16.8407901,39.6927832 L16.8407901,40.4707832 L14.1927901,42.7247832 C13.9697901,42.9137832 13.8407901,43.1927832 13.8407901,43.4857832 C13.8407901,43.7787832 13.9697901,44.0577832 14.1927901,44.2477832 L16.8407901,46.5007832 L16.8407901,48.9967832 C16.8407901,49.2097832 16.9097901,49.4167832 17.0357901,49.5887832 L19.9717901,53.5887832 C20.1427901,53.8217832 20.4077901,53.9697832 20.6967901,53.9937832 C20.7237901,53.9957832 20.7507901,53.9967832 20.7777901,53.9967832 C21.0387901,53.9967832 21.2897901,53.8947832 21.4767901,53.7107832 L24.5407901,50.7107832 C24.7327901,50.5227832 24.8407901,50.2657832 24.8407901,49.9967832 L24.8407901,31.6977832 C28.8917901,30.0787832 31.5647901,26.1817832 31.5647901,21.7837832 L31.5647901,21.7837832 Z" id="AWS-Key-Management-Service_Icon_48_Squid" fill="#FFFFFF"></path>
    </g></g><text x="1164" y="506" font-size="11.5" font-weight="700" fill="#1C1917" font-family="Inter, ui-sans-serif, sans-serif">AWS KMS</text><text x="1164" y="522" font-size="9.5" fill="#57534E">b41d8a92-24c2-40ba-a1…</text><rect class="bp-node" x="28" y="552" width="200" height="56" fill="#FFFFFF" stroke="#1C1917" stroke-width="0.9"/><g transform="translate(36,560) scale(0.6250)"><title>Icon-Architecture/48/Arch_AWS-Key-Management-Service_48</title>
    <g id="Icon-Architecture/48/Arch_AWS-Key-Management-Service_48" stroke="none" stroke-width="1" fill="none" fill-rule="evenodd">
        <g id="Icon-Architecture-BG/48/Security-Identity-Compliance" fill="#DD344C">
            <rect id="Rectangle" x="0" y="0" width="64" height="64"></rect>
        </g>
        <path d="M42.8407901,41.9967832 L48.8407901,41.9967832 L48.8407901,39.9967832 L42.8407901,39.9967832 L42.8407901,41.9967832 Z M34.8407901,41.9967832 L40.8407901,41.9967832 L40.8407901,39.9967832 L34.8407901,39.9967832 L34.8407901,41.9967832 Z M26.8407901,41.9967832 L32.8407901,41.9967832 L32.8407901,39.9967832 L26.8407901,39.9967832 L26.8407901,41.9967832 Z M36.8407901,35.4967832 C36.8407901,34.6697832 37.5137901,33.9967832 38.3407901,33.9967832 C39.1687901,33.9967832 39.8407901,34.6697832 39.8407901,35.4967832 C39.8407901,36.3237832 39.1687901,36.9967832 38.3407901,36.9967832 C37.5137901,36.9967832 36.8407901,36.3237832 36.8407901,35.4967832 L36.8407901,35.4967832 Z M41.8407901,35.4967832 C41.8407901,33.5667832 40.2707901,31.9967832 38.3407901,31.9967832 C36.4117901,31.9967832 34.8407901,33.5667832 34.8407901,35.4967832 C34.8407901,37.4267832 36.4117901,38.9967832 38.3407901,38.9967832 C40.2707901,38.9967832 41.8407901,37.4267832 41.8407901,35.4967832 L41.8407901,35.4967832 Z M30.3407901,36.9967832 C29.5137901,36.9967832 28.8407901,36.3237832 28.8407901,35.4967832 C28.8407901,34.6697832 29.5137901,33.9967832 30.3407901,33.9967832 C31.1687901,33.9967832 31.8407901,34.6697832 31.8407901,35.4967832 C31.8407901,36.3237832 31.1687901,36.9967832 30.3407901,36.9967832 L30.3407901,36.9967832 Z M30.3407901,31.9967832 C28.4117901,31.9967832 26.8407901,33.5667832 26.8407901,35.4967832 C26.8407901,37.4267832 28.4117901,38.9967832 30.3407901,38.9967832 C32.2707901,38.9967832 33.8407901,37.4267832 33.8407901,35.4967832 C33.8407901,33.5667832 32.2707901,31.9967832 30.3407901,31.9967832 L30.3407901,31.9967832 Z M53.8407901,25.9967832 L53.8407901,45.9967832 C53.8407901,46.5487832 53.3937901,46.9967832 52.8407901,46.9967832 L26.8407901,46.9967832 L26.8407901,44.9967832 L51.8407901,44.9967832 L51.8407901,26.9967832 L32.8407901,26.9967832 L32.8407901,24.9967832 L52.8407901,24.9967832 C53.3937901,24.9967832 53.8407901,25.4447832 53.8407901,25.9967832 L53.8407901,25.9967832 Z M20.9037901,23.8917832 C19.8127901,23.8917832 18.9247901,23.0037832 18.9247901,21.9127832 C18.9247901,20.8217832 19.8127901,19.9337832 20.9037901,19.9337832 C21.9947901,19.9337832 22.8817901,20.8217832 22.8817901,21.9127832 C22.8817901,23.0037832 21.9947901,23.8917832 20.9037901,23.8917832 L20.9037901,23.8917832 Z M20.9037901,17.9337832 C18.7107901,17.9337832 16.9247901,19.7187832 16.9247901,21.9127832 C16.9247901,24.1067832 18.7107901,25.8917832 20.9037901,25.8917832 C23.0967901,25.8917832 24.8817901,24.1067832 24.8817901,21.9127832 C24.8817901,19.7187832 23.0967901,17.9337832 20.9037901,17.9337832 L20.9037901,17.9337832 Z M23.5337901,30.0457832 C23.1207901,30.1787832 22.8407901,30.5627832 22.8407901,30.9967832 L22.8407901,49.5767832 L20.9017901,51.4757832 L18.8407901,48.6687832 L18.8407901,46.0387832 C18.8407901,45.7467832 18.7127901,45.4677832 18.4897901,45.2777832 L16.3837901,43.4857832 L18.4897901,41.6947832 C18.7127901,41.5047832 18.8407901,41.2257832 18.8407901,40.9327832 L18.8407901,39.2307832 C18.8407901,38.9377832 18.7127901,38.6587832 18.4897901,38.4687832 L16.3837901,36.6777832 L18.4897901,34.8857832 C18.7127901,34.6957832 18.8407901,34.4167832 18.8407901,34.1237832 L18.8407901,30.9967832 C18.8407901,30.5607832 18.5587901,30.1747832 18.1427901,30.0437832 C13.7627901,28.6557832 11.2567901,24.3907832 12.1847901,19.9017832 C12.8557901,16.6557832 15.3507901,14.0537832 18.5437901,13.2707832 C21.2617901,12.6027832 24.0527901,13.1857832 26.1957901,14.8667832 C28.3377901,16.5457832 29.5647901,19.0677832 29.5647901,21.7837832 C29.5647901,25.5577832 27.1407901,28.8777832 23.5337901,30.0457832 L23.5337901,30.0457832 Z M31.5647901,21.7837832 C31.5647901,18.4497832 30.0577901,15.3537832 27.4297901,13.2927832 C24.8017901,11.2307832 21.3907901,10.5137832 18.0667901,11.3287832 C14.1297901,12.2937832 11.0517901,15.4997832 10.2257901,19.4967832 C9.15579012,24.6777832 11.9757901,29.7947832 16.8407901,31.7027832 L16.8407901,33.6627832 L14.1927901,35.9157832 C13.9697901,36.1057832 13.8407901,36.3847832 13.8407901,36.6777832 C13.8407901,36.9707832 13.9697901,37.2487832 14.1927901,37.4387832 L16.8407901,39.6927832 L16.8407901,40.4707832 L14.1927901,42.7247832 C13.9697901,42.9137832 13.8407901,43.1927832 13.8407901,43.4857832 C13.8407901,43.7787832 13.9697901,44.0577832 14.1927901,44.2477832 L16.8407901,46.5007832 L16.8407901,48.9967832 C16.8407901,49.2097832 16.9097901,49.4167832 17.0357901,49.5887832 L19.9717901,53.5887832 C20.1427901,53.8217832 20.4077901,53.9697832 20.6967901,53.9937832 C20.7237901,53.9957832 20.7507901,53.9967832 20.7777901,53.9967832 C21.0387901,53.9967832 21.2897901,53.8947832 21.4767901,53.7107832 L24.5407901,50.7107832 C24.7327901,50.5227832 24.8407901,50.2657832 24.8407901,49.9967832 L24.8407901,31.6977832 C28.8917901,30.0787832 31.5647901,26.1817832 31.5647901,21.7837832 L31.5647901,21.7837832 Z" id="AWS-Key-Management-Service_Icon_48_Squid" fill="#FFFFFF"></path>
    </g></g><text x="84" y="574" font-size="11.5" font-weight="700" fill="#1C1917" font-family="Inter, ui-sans-serif, sans-serif">AWS KMS</text><text x="84" y="590" font-size="9.5" fill="#57534E">f85c8e52-fa00-461c-96…</text><g class="connections-llm" stroke-linecap="round"><path d="M 228 198 L 710 198 Q 710 198 710 198 L 710 198 Q 710 198 710 198 L 1192 198" fill="none" stroke="#B91C1C" stroke-width="1.3" stroke-dasharray="4 3" stroke-linecap="round" stroke-linejoin="round" marker-end="url(#bp-arrow-red)"/><rect x="442" y="190" width="54" height="16" fill="#FAF7F0" stroke="#B91C1C" stroke-width="0.9"/><text x="469" y="202" text-anchor="middle" font-size="9.5" font-weight="700" fill="#B91C1C" font-family="'JetBrains Mono', ui-monospace, monospace">invokes</text></g><g font-family="'JetBrains Mono', ui-monospace, monospace" font-size="10"><text x="28" y="648" font-weight="700" fill="#78716C" letter-spacing="0.14em">LINES</text><line x1="78" y1="644" x2="98" y2="644" stroke="#1C1917" stroke-width="1.6"/><path d="M 98 641 L 104 644 L 98 647 Z" fill="#1C1917"/><text x="110" y="648" fill="#1C1917" font-weight="600">sync</text><line x1="158" y1="644" x2="178" y2="644" stroke="#78716C" stroke-width="1.6" stroke-dasharray="4 3"/><path d="M 178 641 L 184 644 L 178 647 Z" fill="#78716C"/><text x="190" y="648" fill="#78716C" font-weight="600">async</text><line x1="244" y1="644" x2="264" y2="644" stroke="#B91C1C" stroke-width="1.6" stroke-dasharray="4 3"/><path d="M 264 641 L 270 644 L 264 647 Z" fill="#B91C1C"/><text x="276" y="648" fill="#B91C1C" font-weight="600">unauth / priv</text><text x="1452" y="648" text-anchor="end" fill="#78716C">CBX AUDIT · cloudbooster.io</text></g></svg>